<svg viewBox="0 0 64 45" xmlns="http://www.w3.org/2000/svg">
    <path fill="red" d="M61.97 7.17a7.89 7.89 0 0 0-5.56-5.56C51.5.3 31.85.3 31.85.3S12.2.3 7.29 1.61a7.89 7.89 0 0 0-5.56 5.56C.42 12.07.42 22.3.42 22.3s0 10.23 1.3 15.13a7.89 7.89 0 0 0 5.57 5.56c4.9 1.31 24.56 1.31 24.56 1.31s19.66 0 24.56-1.31a7.88 7.88 0 0 0 5.56-5.56c1.3-4.9 1.3-15.13 1.3-15.13s0-10.23-1.3-15.13z"/>
    <g>
        <rect x="21.1" y="18" width="4" height="10" fill="#FFF" opacity="0.2">
            <animate attributeName="opacity" attributeType="XML" values="0.2; 1; .2" begin="0s" dur="0.8s" repeatCount="indefinite"/>
            <animate attributeName="height" attributeType="XML" values="15; 30; 15" begin="0s" dur="0.8s" repeatCount="indefinite"/>
            <animate attributeName="y" attributeType="XML" values="15; 7.5; 15" begin="0s" dur="0.8s" repeatCount="indefinite"/>
        </rect>
        <rect x="29.1" y="18" width="4" height="10" fill="#FFF" opacity="0.2">
            <animate attributeName="opacity" attributeType="XML" values="0.2; 1; .2" begin="0.15s" dur="0.8s" repeatCount="indefinite"/>
            <animate attributeName="height" attributeType="XML" values="15; 30; 15" begin="0.15s" dur="0.8s" repeatCount="indefinite"/>
            <animate attributeName="y" attributeType="XML" values="15; 7.5; 15" begin="0.15s" dur="0.8s" repeatCount="indefinite"/>
        </rect>
        <rect x="37.1" y="18" width="4" height="10" fill="#FFF" opacity="0.2">
            <animate attributeName="opacity" attributeType="XML" values="0.2; 1; .2" begin="0.30s" dur="0.8s" repeatCount="indefinite"/>
            <animate attributeName="height" attributeType="XML" values="15; 30; 15" begin="0.30s" dur="0.8s" repeatCount="indefinite"/>
            <animate attributeName="y" attributeType="XML" values="15; 7.5; 15" begin="0.30s" dur="0.8s" repeatCount="indefinite"/>
        </rect>
    </g>
</svg>
