<svg xmlns="http://www.w3.org/2000/svg" preserveAspectRatio="xMaxYMax meet" viewBox="0 0 64 64">
  <path fill="red" d="M61.97 16.39a7.89 7.89 0 0 0-5.56-5.56C51.5 9.52 31.85 9.52 31.85 9.52s-19.65 0-24.56 1.31a7.89 7.89 0 0 0-5.56 5.56C.42 21.29.42 31.52.42 31.52s0 10.23 1.3 15.13a7.89 7.89 0 0 0 5.57 5.56c4.9 1.31 24.56 1.31 24.56 1.31s19.66 0 24.56-1.31a7.88 7.88 0 0 0 5.56-5.56c1.3-4.9 1.3-15.13 1.3-15.13s0-10.23-1.3-15.13z"/>
  <g stroke="#fff" transform="translate(0 9.22)">
    <ellipse cx="32.33" cy="22.12" fill="none" stroke-width="3.5" rx="14.86" ry="14.65" transform="rotate(.38) skewX(-.01)"/>
    <path fill="#fff" stroke-width="1.33" d="M31.08 12.17l.17 11.43h9.12v-2.28l-6.89.06v-9.2z"/>
  </g>
</svg>
